<?xml version="1.0" encoding="UTF-8" standalone="no"?>
<!-- Created with Inkscape (http://www.inkscape.org/) -->

<svg
   xmlns:dc="http://purl.org/dc/elements/1.1/"
   xmlns:cc="http://creativecommons.org/ns#"
   xmlns:rdf="http://www.w3.org/1999/02/22-rdf-syntax-ns#"
   xmlns:svg="http://www.w3.org/2000/svg"
   xmlns="http://www.w3.org/2000/svg"
   xmlns:xlink="http://www.w3.org/1999/xlink"
   xmlns:sodipodi="http://sodipodi.sourceforge.net/DTD/sodipodi-0.dtd"
   xmlns:inkscape="http://www.inkscape.org/namespaces/inkscape"
   id="svg2"
   version="1.1"
   inkscape:version="0.47 r22583"
   width="640"
   height="400"
   sodipodi:docname="raptor3.gif">
  <metadata
     id="metadata8">
    <rdf:RDF>
      <cc:Work
         rdf:about="">
        <dc:format>image/svg+xml</dc:format>
        <dc:type
           rdf:resource="http://purl.org/dc/dcmitype/StillImage" />
        <dc:title></dc:title>
      </cc:Work>
    </rdf:RDF>
  </metadata>
  <defs
     id="defs6">
    <linearGradient
       inkscape:collect="always"
       id="linearGradient3672">
      <stop
         style="stop-color:#50b9ec;stop-opacity:1"
         offset="0"
         id="stop3674" />
      <stop
         style="stop-color:#0000ff;stop-opacity:1"
         offset="1"
         id="stop3676" />
    </linearGradient>
    <linearGradient
       id="linearGradient3654">
      <stop
         style="stop-color:#ffffff;stop-opacity:0.25098041;"
         offset="0"
         id="stop3656" />
      <stop
         id="stop3662"
         offset="0.10344828"
         style="stop-color:#ffffff;stop-opacity:0.25098041;" />
      <stop
         style="stop-color:#000000;stop-opacity:0.50196081;"
         offset="1"
         id="stop3658" />
    </linearGradient>
    <inkscape:perspective
       sodipodi:type="inkscape:persp3d"
       inkscape:vp_x="0 : 0.5 : 1"
       inkscape:vp_y="0 : 1000 : 0"
       inkscape:vp_z="1 : 0.5 : 1"
       inkscape:persp3d-origin="0.5 : 0.33333333 : 1"
       id="perspective10" />
    <inkscape:perspective
       id="perspective2831"
       inkscape:persp3d-origin="0.5 : 0.33333333 : 1"
       inkscape:vp_z="1 : 0.5 : 1"
       inkscape:vp_y="0 : 1000 : 0"
       inkscape:vp_x="0 : 0.5 : 1"
       sodipodi:type="inkscape:persp3d" />
    <inkscape:perspective
       id="perspective2866"
       inkscape:persp3d-origin="0.5 : 0.33333333 : 1"
       inkscape:vp_z="1 : 0.5 : 1"
       inkscape:vp_y="0 : 1000 : 0"
       inkscape:vp_x="0 : 0.5 : 1"
       sodipodi:type="inkscape:persp3d" />
    <linearGradient
       inkscape:collect="always"
       xlink:href="#linearGradient3654"
       id="linearGradient3660"
       x1="374"
       y1="236"
       x2="374"
       y2="216"
       gradientUnits="userSpaceOnUse" />
    <linearGradient
       inkscape:collect="always"
       xlink:href="#linearGradient3672"
       id="linearGradient3678"
       x1="374"
       y1="218"
       x2="378"
       y2="210"
       gradientUnits="userSpaceOnUse" />
    <filter
       inkscape:collect="always"
       id="filter3688"
       x="-0.54000003"
       width="2.0800001"
       y="-0.27000002"
       height="1.54">
      <feGaussianBlur
         inkscape:collect="always"
         stdDeviation="0.90000006"
         id="feGaussianBlur3690" />
    </filter>
    <inkscape:perspective
       id="perspective3702"
       inkscape:persp3d-origin="0.5 : 0.33333333 : 1"
       inkscape:vp_z="1 : 0.5 : 1"
       inkscape:vp_y="0 : 1000 : 0"
       inkscape:vp_x="0 : 0.5 : 1"
       sodipodi:type="inkscape:persp3d" />
    <linearGradient
       gradientTransform="translate(-39.05191,231)"
       inkscape:collect="always"
       xlink:href="#linearGradient3654-5"
       id="linearGradient3660-4"
       x1="374"
       y1="236"
       x2="374"
       y2="216"
       gradientUnits="userSpaceOnUse" />
    <linearGradient
       id="linearGradient3654-5">
      <stop
         style="stop-color:#ffffff;stop-opacity:0.25098041;"
         offset="0"
         id="stop3656-0" />
      <stop
         id="stop3662-5"
         offset="0.10344828"
         style="stop-color:#ffffff;stop-opacity:0.25098041;" />
      <stop
         style="stop-color:#000000;stop-opacity:0.50196081;"
         offset="1"
         id="stop3658-6" />
    </linearGradient>
    <linearGradient
       inkscape:collect="always"
       xlink:href="#linearGradient3672-0"
       id="linearGradient3678-8"
       x1="374"
       y1="218"
       x2="378"
       y2="210"
       gradientUnits="userSpaceOnUse" />
    <linearGradient
       inkscape:collect="always"
       id="linearGradient3672-0">
      <stop
         style="stop-color:#50b9ec;stop-opacity:1"
         offset="0"
         id="stop3674-9" />
      <stop
         style="stop-color:#0000ff;stop-opacity:1"
         offset="1"
         id="stop3676-5" />
    </linearGradient>
    <filter
       color-interpolation-filters="sRGB"
       inkscape:collect="always"
       id="filter3688-4"
       x="-0.54000002"
       width="2.0800002"
       y="-0.27000001"
       height="1.54">
      <feGaussianBlur
         inkscape:collect="always"
         stdDeviation="0.90000006"
         id="feGaussianBlur3690-7" />
    </filter>
    <linearGradient
       y2="210"
       x2="378"
       y1="218"
       x1="374"
       gradientUnits="userSpaceOnUse"
       id="linearGradient3722"
       xlink:href="#linearGradient3672-0"
       inkscape:collect="always" />
    <inkscape:perspective
       id="perspective3783"
       inkscape:persp3d-origin="0.5 : 0.33333333 : 1"
       inkscape:vp_z="1 : 0.5 : 1"
       inkscape:vp_y="0 : 1000 : 0"
       inkscape:vp_x="0 : 0.5 : 1"
       sodipodi:type="inkscape:persp3d" />
  </defs>
  <sodipodi:namedview
     pagecolor="#ffffff"
     bordercolor="#666666"
     borderopacity="1"
     objecttolerance="10"
     gridtolerance="10"
     guidetolerance="10"
     inkscape:pageopacity="0"
     inkscape:pageshadow="2"
     inkscape:window-width="1364"
     inkscape:window-height="748"
     id="namedview4"
     showgrid="true"
     inkscape:zoom="1.7713025"
     inkscape:cx="369.78448"
     inkscape:cy="-158.28163"
     inkscape:window-x="0"
     inkscape:window-y="18"
     inkscape:window-maximized="0"
     inkscape:current-layer="svg2">
    <inkscape:grid
       type="xygrid"
       id="grid2820" />
  </sodipodi:namedview>
  <image
     xlink:href="/home/manveru/Pictures/Raptor-Call_of_the_Shadows/raptor3.gif"
     width="640"
     height="400"
     id="image12"
     x="0"
     y="0"
     sodipodi:insensitive="true"
     sodipodi:absref="/home/manveru/Pictures/Raptor-Call_of_the_Shadows/raptor3.gif" />
  <path
     style="fill:#000000;fill-opacity:0.50196078;stroke:none"
     d="m 362,216 2,0 0,2 4,0 -10e-6,-2 2,0 0,2.50349 L 370,222 l -2,0 0,6 2,0 0,2 -2,0 0,6 -4,0 0,-6 -2,0 0,-2 2,0 0,-6 -2,0 0,-6 z"
     id="rect2818"
     sodipodi:nodetypes="cccccccccccccccccccccc" />
  <rect
     style="fill:url(#linearGradient3678);fill-opacity:1;stroke:none;filter:url(#filter3688)"
     id="rect3670"
     width="4"
     height="8"
     x="374"
     y="210"
     transform="matrix(0.5,0,0,1,188,0)" />
  <path
     style="fill:#807c7c;fill-opacity:1;stroke:none"
     d="m 372,216 2,0 0,2 4,0 -10e-6,-2 2,0 0,2.50349 L 380,222 l -2,0 0,6 2,0 0,2 -2,0 0,6 -4,0 0,-6 -2,0 0,-2 2,0 0,-6 -2,0 0,-6 z"
     id="rect2818-2"
     sodipodi:nodetypes="cccccccccccccccccccccc" />
  <rect
     style="fill:#7c101c;fill-opacity:1;stroke:none"
     id="rect2880"
     width="3.948103"
     height="2.0179644"
     x="374.05191"
     y="233.98204" />
  <rect
     style="fill:#d47418;fill-opacity:1;stroke:none"
     id="rect3692"
     width="3.9481032"
     height="1.7445112"
     x="374.05191"
     y="222.25549" />
  <path
     style="fill:url(#linearGradient3660);fill-opacity:1;stroke:none;opacity:1"
     d="m 372,216 2,0 0,2 2,0 0,18 -2,0 0,-6 -2,0 0,-2 2,0 0,-6 -2,0 0,-6 z"
     id="rect2818-2-5"
     sodipodi:nodetypes="ccccccccccccc" />
  <g
     id="g3765"
     inkscape:export-filename="/home/manveru/Dropbox/prog/go/raptgo/gfx/missile_top_down.png"
     inkscape:export-xdpi="85.714287"
     inkscape:export-ydpi="85.714287">
    <rect
       transform="matrix(0.5,0,0,1,148.94809,231)"
       y="210"
       x="374"
       height="8"
       width="4"
       id="rect3670-9"
       style="fill:url(#linearGradient3722);fill-opacity:1;stroke:none;filter:url(#filter3688-4)" />
    <path
       sodipodi:nodetypes="cccccccccccccccccccccc"
       id="rect2818-2-9"
       d="m 332.94809,447 2,0 0,2 4,0 -10e-6,-2 2,0 0,2.50349 10e-6,3.49651 -2,0 0,6 2,0 0,2 -2,0 0,6 -4,0 0,-6 -2,0 0,-2 2,0 0,-6 -2,0 0,-6 z"
       style="fill:#807c7c;fill-opacity:1;stroke:none" />
    <rect
       y="464.98203"
       x="335"
       height="2.0179644"
       width="3.948103"
       id="rect2880-4"
       style="fill:#7c101c;fill-opacity:1;stroke:none" />
    <rect
       y="453.25549"
       x="335"
       height="1.7445112"
       width="3.9481032"
       id="rect3692-6"
       style="fill:#d47418;fill-opacity:1;stroke:none" />
    <path
       sodipodi:nodetypes="ccccccccccccc"
       id="rect2818-2-5-3"
       d="m 332.94809,447 2,0 0,2 2,0 0,18 -2,0 0,-6 -2,0 0,-2 2,0 0,-6 -2,0 0,-6 z"
       style="fill:url(#linearGradient3660-4);fill-opacity:1;stroke:none" />
  </g>
  <path
     style="fill:#00ff00;fill-opacity:1;stroke:none;opacity:0.08527132"
     d="m 548,176 0,4 2,0 0,4 2,0 0,10 2,0 0,4 -2,0 0,4 -2,0 0,2 -2,0 0,-6 -4,0 0,6 -2,0 0,-4 -2,0 0,-18 2,0 0,-4 2,0 0,-2 4,0 z"
     id="rect3772"
     sodipodi:nodetypes="ccccccccccccccccccccccccc" />
</svg>
